<?xml version="1.0" encoding="UTF-8"?>
<svg id="Layer_1" data-name="Layer 1" xmlns="http://www.w3.org/2000/svg" viewBox="0 0 349.518 176.728">
  <path d="M331.156.021L15.853.013S0-.86,0,11.471v149.725s.881,16.734,18.495,15.413l315.743.074s15.853,1.687,14.972-15.487l.035-142.679S353.174-.419,331.156.021ZM90.977,160.397l-20.849.019s-4.789.451-4.789-3.768,4.789-3.765,4.789-3.765h21.014s3.839-.248,3.839,3.881-4.005,3.633-4.005,3.633ZM90.977,22.672l-20.849.019s-4.789.451-4.789-3.768,4.789-3.765,4.789-3.765h21.014s3.839-.248,3.839,3.881-4.005,3.633-4.005,3.633ZM279.895,160.397l-20.849.019s-4.789.451-4.789-3.768,4.789-3.765,4.789-3.765h21.014s3.839-.248,3.839,3.881-4.005,3.633-4.005,3.633ZM279.895,22.672l-20.849.019s-4.789.451-4.789-3.768,4.789-3.765,4.789-3.765h21.014s3.839-.248,3.839,3.881-4.005,3.633-4.005,3.633Z" fill="#fff"/>
</svg>